HIERARCHY
ROOT Hips
{
	OFFSET 0.000000 0.000000 0.000000
	CHANNELS 6 Xposition Yposition Zposition Xrotation Yrotation Zrotation
	JOINT LeftUpLeg_virtual
	{
		OFFSET 0.000000 0.000000 0.000000
		CHANNELS 3 Xrotation Yrotation Zrotation
		JOINT LeftUpLeg
		{
			OFFSET 15.427100 -6.655098 0.678600
			CHANNELS 3 Xrotation Yrotation Zrotation
			JOINT LeftLeg
			{
				OFFSET 4.081073 -39.591068 13.024000
				CHANNELS 3 Xrotation Yrotation Zrotation
				JOINT LeftFoot
				{
					OFFSET -4.081074 -37.707932 -15.979700
					CHANNELS 3 Xrotation Yrotation Zrotation
					JOINT LeftToeBase
					{
						OFFSET 5.346399 -15.068900 20.645000
						CHANNELS 3 Xrotation Yrotation Zrotation
						JOINT LeftToe_End
						{
							OFFSET 2.754700 0.931300 11.300900
							CHANNELS 3 Xrotation Yrotation Zrotation
							End Site
							{
								OFFSET 0 0 0
							}
						}
					}
				}
			}
		}
	}
	JOINT RightUpLeg_virtual
	{
		OFFSET 0.000000 0.000000 0.000000
		CHANNELS 3 Xrotation Yrotation Zrotation
		JOINT RightUpLeg
		{
			OFFSET -15.569500 -6.655098 0.678600
			CHANNELS 3 Xrotation Yrotation Zrotation
			JOINT RightLeg
			{
				OFFSET -4.081825 -39.591045 13.023800
				CHANNELS 3 Xrotation Yrotation Zrotation
				JOINT RightFoot
				{
					OFFSET 4.081824 -37.707954 -15.979600
					CHANNELS 3 Xrotation Yrotation Zrotation
					JOINT RightToeBase
					{
						OFFSET -5.346400 -15.068900 20.645000
						CHANNELS 3 Xrotation Yrotation Zrotation
						JOINT RightToe_End
						{
							OFFSET -2.754700 0.931300 11.300900
							CHANNELS 3 Xrotation Yrotation Zrotation
							End Site
							{
								OFFSET 0 0 0
							}
						}
					}
				}
			}
		}
	}
	JOINT Spine_virtual
	{
		OFFSET 0.000000 0.000000 0.000000
		CHANNELS 3 Xrotation Yrotation Zrotation
		JOINT Spine
		{
			OFFSET -0.279200 12.230698 -2.892100
			CHANNELS 3 Xrotation Yrotation Zrotation
			JOINT Spine1
			{
				OFFSET -0.232667 10.192268 -1.242267
				CHANNELS 3 Xrotation Yrotation Zrotation
				JOINT Spine1_split
				{
					OFFSET -0.232667 10.192268 -1.242267
					CHANNELS 3 Xrotation Yrotation Zrotation
					JOINT Spine2
					{
						OFFSET -0.232667 10.192268 -1.242267
						CHANNELS 3 Xrotation Yrotation Zrotation
						JOINT Neck_virtual
						{
							OFFSET 0.000000 0.000000 0.000000
							CHANNELS 3 Xrotation Yrotation Zrotation
							JOINT Neck
							{
								OFFSET -0.418800 17.814194 8.416900
								CHANNELS 3 Xrotation Yrotation Zrotation
								JOINT Head
								{
									OFFSET 0.000000 7.031097 3.806800
									CHANNELS 3 Xrotation Yrotation Zrotation
									JOINT HeadTop_End
									{
										OFFSET 0.000000 24.646606 12.978600
										CHANNELS 3 Xrotation Yrotation Zrotation
										End Site
										{
											OFFSET 0 0 0
										}
									}
								}
							}
						}
						JOINT LeftShoulder_virtual
						{
							OFFSET 0.000000 0.000000 0.000000
							CHANNELS 3 Xrotation Yrotation Zrotation
							JOINT LeftShoulder
							{
								OFFSET 8.476499 7.247704 -3.868750
								CHANNELS 3 Xrotation Yrotation Zrotation
								JOINT LeftShoulder_split
								{
									OFFSET 8.476499 7.247704 -3.868750
									CHANNELS 3 Xrotation Yrotation Zrotation
									JOINT LeftArm
									{
										OFFSET 9.308998 -2.777710 0.208600
										CHANNELS 3 Xrotation Yrotation Zrotation
										JOINT LeftForeArm
										{
											OFFSET 29.972298 0.000000 0.000000
											CHANNELS 3 Xrotation Yrotation Zrotation
											JOINT LeftHand
											{
												OFFSET 26.026505 0.000000 0.000000
												CHANNELS 3 Xrotation Yrotation Zrotation
												End Site
												{
													OFFSET 0 0 0
												}
											}
										}
									}
								}
							}
						}
						JOINT RightShoulder_virtual
						{
							OFFSET 0.000000 0.000000 0.000000
							CHANNELS 3 Xrotation Yrotation Zrotation
							JOINT RightShoulder
							{
								OFFSET -7.570500 7.247704 -3.868750
								CHANNELS 3 Xrotation Yrotation Zrotation
								JOINT RightShoulder_split
								{
									OFFSET -7.570500 7.247704 -3.868750
									CHANNELS 3 Xrotation Yrotation Zrotation
									JOINT RightArm
									{
										OFFSET -9.308998 -2.777710 0.208500
										CHANNELS 3 Xrotation Yrotation Zrotation
										JOINT RightForeArm
										{
											OFFSET -29.972300 0.000000 0.000000
											CHANNELS 3 Xrotation Yrotation Zrotation
											JOINT RightHand
											{
												OFFSET -26.026505 0.000000 0.000000
												CHANNELS 3 Xrotation Yrotation Zrotation
												End Site
												{
													OFFSET 0 0 0
												}
											}
										}
									}
								}
							}
						}
					}
				}
			}
		}
	}
}
MOTION
Frames: 4
Frame Time: 0.03333333
3.153126 75.306114 -4.253868 0.000000 0.000000 0.000000 7.458184 -68.185806 9.236190 -35.518483 10.804648 33.831658 36.422431 -9.841772 -0.466232 -7.561355 -2.361926 -18.307420 -0.841290 -0.500624 -0.523970 0.000000 0.000000 0.000000 5.571485 -67.782811 8.239507 -28.788626 -18.235167 -42.895405 39.911073 11.656631 -1.066410 -17.140527 -2.817974 25.867380 4.670912 1.103129 1.124060 0.000000 0.000000 0.000000 7.327635 -65.541812 8.904396 12.083320 -0.418961 -5.015947 7.198101 1.710180 -1.007003 0.526612 3.903610 -0.670200 0.000000 0.000000 0.000000 9.708172 1.791499 -2.155660 7.282146 4.806038 4.592334 -24.477368 52.936521 18.988897 0.000000 0.000000 0.000000 8.996136 1.148883 -1.075906 5.501436 -1.766407 -12.388601 -3.013629 -4.555566 2.512746 -34.288697 14.095008 -27.862302 6.988761 -53.873196 4.314270 0.000000 0.000000 0.000000 7.800193 1.705716 -0.697559 -7.998874 7.741102 15.021114 3.220072 0.705999 -1.662123 17.097826 -6.545706 33.310635 -19.769228 39.565729 20.061411 0.000000 0.000000 0.000000 
2.998822 75.590248 -3.937702 0.000000 0.000000 0.000000 7.035729 -68.008501 8.515024 -35.493894 10.396905 34.134615 37.252268 -9.745607 -0.297895 -7.726411 -2.431777 -18.692259 -1.105105 -0.505310 -0.495710 0.000000 0.000000 0.000000 5.328997 -68.000120 7.741971 -27.988175 -17.872845 -42.282532 38.168292 11.743935 -0.922108 -16.610122 -2.381774 26.391457 3.288868 1.119198 1.145869 0.000000 0.000000 0.000000 7.248385 -65.880672 8.492964 12.048869 -0.447610 -4.612626 7.215843 1.715129 -1.451442 0.076112 3.141192 -0.496629 0.000000 0.000000 0.000000 8.778679 1.812241 -2.337102 7.699352 4.835834 4.439114 -24.093576 54.098517 18.156764 0.000000 0.000000 0.000000 8.665459 1.176348 -1.545747 5.414135 -2.332005 -12.708796 -3.214775 -2.860417 2.144536 -33.329151 16.502828 -27.274025 7.664674 -51.600870 4.793912 0.000000 0.000000 0.000000 7.373446 1.874910 -0.885098 -9.222753 6.386069 15.128394 3.943890 -0.180668 -0.386503 14.993228 -5.610945 31.723210 -18.602509 38.868851 19.727364 0.000000 0.000000 0.000000 
2.772654 75.955750 -3.524147 0.000000 0.000000 0.000000 5.777948 -68.364026 6.887416 -35.223449 9.739112 34.676239 38.418639 -9.401370 -0.233574 -7.997165 -2.316978 -19.004843 -1.489335 -0.486999 -0.354273 0.000000 0.000000 0.000000 4.486059 -68.721825 6.506544 -27.004526 -17.404430 -41.724451 36.051446 12.097433 -0.505560 -15.757036 -1.718861 26.865926 2.326435 1.129588 1.244333 0.000000 0.000000 0.000000 6.447943 -66.408768 7.278585 11.731892 -0.506456 -4.093408 6.611685 1.409751 -1.551910 0.304886 2.644341 -0.164976 0.000000 0.000000 0.000000 7.453408 1.378278 -2.063769 7.773486 4.820445 3.623258 -21.813638 56.317109 14.767414 0.000000 0.000000 0.000000 7.591205 0.844613 -1.633142 4.943879 -3.641104 -14.329672 -3.961655 -1.824899 2.827191 -28.387368 20.487376 -26.683167 6.830750 -49.032719 4.265800 0.000000 0.000000 0.000000 6.431186 1.621837 -0.775531 -11.321044 3.881955 14.901945 4.565849 -1.027680 0.154136 13.200476 -10.081735 32.902346 -17.476492 40.807669 19.428852 0.000000 0.000000 0.000000 
2.503883 76.180779 -3.170036 0.000000 0.000000 0.000000 3.747816 -69.069243 4.525667 -34.885178 8.924836 35.299896 39.800424 -8.819646 -0.231985 -8.441106 -2.059699 -19.089841 -1.745461 -0.448465 -0.202774 0.000000 0.000000 0.000000 2.819024 -69.498309 4.447498 -26.030804 -17.005964 -41.405467 34.395699 12.557234 0.114272 -14.888928 -1.142551 27.297666 1.858373 1.128026 1.340601 0.000000 0.000000 0.000000 5.112350 -66.932849 5.474079 11.169444 -0.612867 -3.545916 5.515391 0.901582 -1.341675 0.431267 1.723546 0.325704 0.000000 0.000000 0.000000 5.962329 0.612022 -1.446755 7.402708 4.833911 2.362365 -17.080389 58.861320 8.805640 0.000000 0.000000 0.000000 6.088706 0.266644 -1.379633 4.170316 -5.221050 -16.854293 -4.469187 -1.500070 4.431053 -20.646108 24.763358 -26.499681 5.387555 -47.911472 3.467598 0.000000 0.000000 0.000000 5.193500 1.052438 -0.414576 -14.057803 0.898449 13.537438 4.236438 -0.916651 -0.234774 12.228442 -19.815589 37.020944 -16.842162 46.667568 19.250941 0.000000 0.000000 0.000000 
